<?xml version="1.0" encoding="UTF-8"?>
<svg xmlns="http://www.w3.org/2000/svg" viewBox="0 0 250 230" width="250" height="230">
  <path d="M 102.0 45.0 L 100.0 45.0 L 97.0 47.0 L 91.0 54.0 L 77.0 54.0 L 70.0 46.0 L 66.0 46.0 L 67.0 59.0 L 66.0 74.0 L 68.0 80.0 L 68.0 85.0 L 61.0 94.0 L 50.0 100.0 L 39.0 111.0 L 30.0 128.0 L 26.0 146.0 L 27.0 164.0 L 22.0 169.0 L 19.0 174.0 L 19.0 181.0 L 24.0 188.0 L 30.0 191.0 L 39.0 193.0 L 52.0 193.0 L 63.0 190.0 L 63.0 185.0 L 61.0 184.0 L 39.0 185.0 L 33.0 183.0 L 29.0 179.0 L 30.0 176.0 L 52.0 178.0 L 67.0 177.0 L 68.0 174.0 L 74.0 175.0 L 77.0 179.0 L 85.0 179.0 L 87.0 177.0 L 97.0 178.0 L 100.0 177.0 L 100.0 172.0 L 98.0 170.0 L 96.0 170.0 L 93.0 165.0 L 93.0 145.0 L 95.0 129.0 L 101.0 113.0 L 101.0 98.0 L 99.0 92.0 L 99.0 84.0 L 102.0 76.0 L 101.0 59.0 L 103.0 51.0 Z" fill="#5F6368" stroke="none"/>
  <path d="M 154.0 47.0 L 145.0 55.0 L 138.0 65.0 L 138.0 69.0 L 144.0 79.0 L 146.0 79.0 L 146.0 76.0 L 148.0 72.0 L 151.0 73.0 L 151.0 86.0 L 150.0 93.0 L 147.0 101.0 L 146.0 113.0 L 151.0 128.0 L 152.0 163.0 L 155.0 164.0 L 154.0 168.0 L 151.0 169.0 L 149.0 178.0 L 144.0 178.0 L 144.0 180.0 L 146.0 181.0 L 152.0 181.0 L 153.0 178.0 L 157.0 176.0 L 156.0 166.0 L 157.0 163.0 L 159.0 162.0 L 159.0 159.0 L 160.0 158.0 L 161.0 149.0 L 159.0 148.0 L 160.0 144.0 L 164.0 144.0 L 166.0 146.0 L 167.0 154.0 L 171.0 159.0 L 169.0 168.0 L 164.0 168.0 L 162.0 170.0 L 162.0 174.0 L 165.0 175.0 L 166.0 179.0 L 165.0 184.0 L 171.0 184.0 L 172.0 182.0 L 175.0 181.0 L 176.0 174.0 L 178.0 174.0 L 179.0 171.0 L 182.0 172.0 L 181.0 178.0 L 185.0 181.0 L 212.0 177.0 L 216.0 177.0 L 219.0 179.0 L 225.0 178.0 L 226.0 180.0 L 231.0 179.0 L 233.0 177.0 L 233.0 174.0 L 231.0 174.0 L 230.0 172.0 L 222.0 173.0 L 217.0 169.0 L 218.0 151.0 L 216.0 143.0 L 213.0 138.0 L 209.0 134.0 L 204.0 120.0 L 198.0 109.0 L 195.0 106.0 L 192.0 105.0 L 192.0 102.0 L 185.0 94.0 L 184.0 91.0 L 181.0 90.0 L 179.0 86.0 L 178.0 81.0 L 179.0 78.0 L 183.0 77.0 L 188.0 68.0 L 188.0 65.0 L 186.0 61.0 L 181.0 56.0 L 179.0 56.0 L 177.0 54.0 L 177.0 52.0 L 172.0 47.0 L 168.0 45.0 L 159.0 45.0 Z" fill="#C99436" stroke="none"/>
</svg>